<?xml version="1.0" standalone="no"?>
<!DOCTYPE svg PUBLIC "-//W3C//DTD SVG 20010904//EN"
 "http://www.w3.org/TR/2001/REC-SVG-20010904/DTD/svg10.dtd">
<svg version="1.0" xmlns="http://www.w3.org/2000/svg"
 width="700.000000pt" height="700.000000pt" viewBox="0 0 700.000000 700.000000"
 preserveAspectRatio="xMidYMid meet">
<metadata>
Created by potrace 1.14, written by Peter Selinger 2001-2017
</metadata>
<g transform="translate(0.000000,700.000000) scale(0.100000,-0.100000)"
fill="#000000" stroke="none">
<path d="M3954 6987 c-14 -24 -195 -238 -236 -278 -106 -105 -286 -123 -413
-42 -41 26 -63 47 -125 119 -122 140 -174 194 -181 187 -4 -4 -35 -83 -69
-174 -34 -92 -75 -185 -92 -208 -65 -89 -172 -137 -292 -129 -82 5 -90 9 -313
136 l-143 81 -1 -152 c-1 -255 -3 -271 -50 -347 -70 -114 -236 -178 -366 -141
-17 5 -34 7 -36 4 -3 -2 1 -32 9 -66 89 -386 317 -703 729 -1009 392 -291 895
-528 1648 -778 136 -45 247 -87 247 -93 0 -12 -129 -379 -136 -386 -2 -2 -14
1 -27 7 -44 22 -213 100 -262 121 -94 40 -196 47 -253 17 -58 -30 -61 -35
-202 -356 -71 -161 -72 -166 -61 -208 24 -90 86 -140 271 -217 63 -26 145 -61
182 -76 36 -16 72 -29 78 -29 12 0 10 -8 -18 -81 l-17 -47 -210 85 c-239 96
-239 96 -320 96 -62 0 -107 -16 -137 -49 -26 -30 -151 -328 -164 -392 -12 -59
54 -135 155 -179 31 -14 144 -54 251 -90 107 -36 199 -69 203 -73 10 -9 -22
-92 -34 -85 -4 3 -68 24 -141 46 -73 22 -185 56 -248 75 -138 43 -194 48 -249
23 -36 -16 -42 -23 -56 -76 -9 -32 -20 -70 -25 -85 -5 -15 -12 -58 -15 -95
-12 -131 34 -161 378 -245 l218 -53 -6 -25 c-4 -14 -9 -28 -13 -31 -4 -4 -42
2 -85 12 -43 10 -88 21 -100 23 -221 42 -253 47 -303 48 -79 1 -86 -23 -39
-129 36 -81 90 -108 250 -127 95 -12 171 -19 188 -18 9 0 17 -2 17 -6 0 -4
-20 -64 -44 -132 l-44 -125 -54 1 c-106 1 -346 41 -537 90 -700 178 -1309 568
-1744 1114 -217 272 -323 465 -425 775 -60 179 -70 216 -96 348 -29 143 -40
214 -54 342 -9 92 -9 470 1 565 54 515 247 980 565 1360 78 93 263 278 332
333 35 28 35 28 5 15 -50 -21 -115 -58 -200 -113 -395 -256 -724 -708 -904
-1243 -31 -92 -84 -298 -95 -369 -4 -21 -11 -63 -16 -93 -33 -186 -35 -585 -4
-788 40 -267 100 -485 202 -737 34 -83 164 -336 219 -426 144 -237 236 -353
433 -548 256 -253 602 -494 965 -671 217 -107 376 -167 663 -254 70 -21 363
-83 431 -91 30 -4 63 -9 75 -11 12 -2 50 -7 86 -10 36 -4 72 -8 80 -9 8 -2 38
-4 67 -4 49 -1 53 -3 68 -35 27 -57 121 -162 188 -210 85 -60 132 -80 382
-160 246 -79 426 -137 655 -211 619 -200 597 -195 750 -190 82 2 123 9 185 29
156 53 288 153 370 280 32 51 80 163 119 281 8 22 37 105 66 185 28 80 56 159
62 175 5 17 14 39 19 50 4 11 22 58 38 105 16 47 130 369 254 715 124 347 234
655 245 685 11 30 72 204 136 385 65 182 121 339 126 350 4 11 13 34 20 50
100 243 87 465 -38 654 -94 142 -223 228 -443 296 l-57 18 -4 87 c-9 185 -112
307 -316 375 -62 21 -88 35 -104 57 -50 71 -58 199 -18 279 13 24 72 109 132
188 60 79 108 145 106 147 -5 4 -62 11 -168 19 -247 20 -288 30 -367 93 -42
32 -92 105 -102 147 -3 11 -6 52 -6 90 0 58 9 98 53 233 29 90 52 167 50 171
-2 4 -88 -12 -193 -36 -114 -26 -210 -43 -240 -42 -97 4 -200 58 -256 133 -47
64 -59 122 -65 321 -3 99 -8 182 -9 184 -2 2 -17 -6 -33 -18 -17 -12 -33 -21
-37 -21 -4 0 -30 -15 -58 -33 -216 -140 -258 -157 -367 -153 -86 4 -148 27
-205 77 -53 47 -73 83 -144 259 -78 191 -76 187 -87 167z"/>
<path d="M1252 5862 c-137 -140 -250 -285 -288 -368 -41 -92 -50 -202 -29
-369 19 -157 72 -275 124 -275 10 0 34 15 52 33 36 35 252 362 276 416 22 50
25 128 7 196 -32 125 -43 210 -53 408 -2 31 -31 18 -89 -41z"/>
<path d="M826 5278 c-80 -171 -156 -445 -186 -668 -6 -41 -13 -89 -15 -107
-16 -112 -5 -198 40 -299 26 -59 53 -80 78 -61 18 14 157 308 181 383 9 29 18
82 20 119 3 64 -3 99 -38 227 -9 32 -18 72 -21 89 -3 18 -8 35 -10 39 -4 6
-13 120 -19 238 -2 35 -6 65 -9 68 -3 3 -12 -9 -21 -28z"/>
<path d="M1492 5180 c-36 -16 -56 -40 -143 -172 -89 -133 -153 -247 -168 -298
-2 -8 -4 -35 -4 -60 0 -77 40 -138 192 -290 284 -284 423 -350 518 -248 12 12
73 127 136 255 124 252 126 260 86 338 -29 56 -39 65 -174 173 -107 85 -181
151 -264 233 -40 39 -97 79 -118 83 -11 3 -38 -4 -61 -14z"/>
<path d="M2342 4489 c-50 -25 -60 -42 -189 -297 -62 -125 -87 -185 -89 -216
-3 -60 32 -132 90 -183 37 -33 239 -156 306 -186 8 -4 33 -18 55 -30 213 -123
362 -186 453 -193 61 -5 71 -3 109 22 37 25 49 43 98 151 89 197 155 368 155
399 0 41 -35 102 -84 147 -24 22 -130 82 -256 146 -118 60 -255 132 -305 161
-168 97 -263 119 -343 79z"/>
<path d="M1044 4440 c-19 -7 -64 -59 -64 -73 0 -2 -22 -51 -49 -108 -157 -334
-130 -429 226 -785 148 -148 268 -227 330 -216 35 5 68 46 87 109 10 32 41
117 68 188 61 159 75 202 72 236 -7 72 -82 171 -204 270 -68 55 -176 157 -289
273 -69 71 -134 120 -153 115 -2 0 -13 -4 -24 -9z"/>
<path d="M616 4142 c-3 -5 -4 -24 -1 -43 2 -19 7 -72 10 -118 4 -46 8 -93 11
-105 2 -11 6 -34 9 -51 20 -103 28 -128 37 -111 5 9 11 24 12 34 32 171 30
225 -9 301 -35 68 -62 104 -69 93z"/>
<path d="M764 3698 c-18 -28 -32 -162 -30 -278 2 -145 17 -198 90 -314 57 -89
109 -149 261 -301 137 -138 160 -157 234 -202 61 -37 105 -43 116 -15 4 9 9
58 10 107 1 50 6 134 10 187 11 157 -3 178 -310 469 -78 73 -140 140 -200 214
-101 126 -159 168 -181 133z"/>
<path d="M1964 3662 c-49 -8 -91 -63 -138 -183 -81 -205 -95 -252 -93 -326 2
-82 25 -118 115 -180 103 -72 552 -293 685 -337 43 -14 66 -19 137 -31 23 -3
83 15 102 32 20 18 51 92 122 295 67 190 67 200 -13 278 -46 45 -89 71 -231
142 -96 47 -233 119 -305 158 -259 144 -310 164 -381 152z"/>
<path d="M1684 2868 c-38 -10 -51 -34 -67 -129 -53 -307 -6 -368 448 -571 228
-102 383 -156 480 -165 73 -7 93 10 100 79 3 25 14 98 25 162 23 135 20 146
-49 209 -47 42 -71 55 -246 132 -71 31 -231 106 -355 166 -235 113 -285 131
-336 117z"/>
<path d="M1170 2622 c0 -18 155 -199 273 -317 135 -135 131 -134 112 -49 -12
52 -38 93 -92 145 -61 59 -293 234 -293 221z"/>
<path d="M1666 2235 c-13 -13 -12 -21 7 -68 32 -76 34 -78 122 -139 175 -122
364 -225 555 -304 107 -44 341 -124 363 -124 30 0 -29 175 -78 229 -41 45
-194 126 -275 146 -3 1 -18 7 -35 14 -16 7 -50 20 -75 28 -62 21 -222 91 -360
156 -153 72 -200 85 -224 62z"/>
</g>
</svg>
